<?xml version="1.0" standalone="no"?>
<!DOCTYPE svg PUBLIC "-//W3C//DTD SVG 20010904//EN"
 "http://www.w3.org/TR/2001/REC-SVG-20010904/DTD/svg10.dtd">
<svg version="1.0" xmlns="http://www.w3.org/2000/svg"
 width="700.000000pt" height="700.000000pt" viewBox="0 0 700.000000 700.000000"
 preserveAspectRatio="xMidYMid meet">
<metadata>
Created by potrace 1.11, written by Peter Selinger 2001-2013
</metadata>
<g transform="translate(0.000000,700.000000) scale(0.100000,-0.100000)"
fill="#000000" stroke="none">
<path d="M4140 6409 c-253 -22 -442 -89 -560 -196 -31 -29 -34 -29 -78 6 -98
76 -246 132 -447 166 -108 18 -486 27 -560 12 -22 -4 -53 -10 -70 -13 -60 -10
-241 -75 -316 -113 -420 -213 -724 -636 -785 -1091 -4 -30 -7 -111 -7 -180 1
-108 8 -164 37 -295 13 -61 63 -191 106 -275 l49 -95 -44 -128 c-25 -70 -47
-139 -49 -153 -3 -14 -9 -40 -15 -57 -12 -37 -48 -214 -56 -272 -3 -22 -7 -51
-10 -65 -19 -129 -26 -480 -11 -620 42 -398 166 -711 392 -992 l64 -78 -684 0
c-423 0 -704 -4 -737 -10 -169 -32 -311 -168 -349 -333 -14 -64 -5 -184 19
-248 47 -124 140 -214 271 -262 54 -21 73 -21 1190 -22 989 -1 1135 -3 1135
-15 -6 -190 -95 -344 -299 -515 -244 -206 -335 -334 -352 -498 l-7 -67 99 36
c231 84 450 144 624 170 77 11 183 14 217 5 22 -6 75 -33 119 -60 198 -124
292 -152 494 -146 69 2 141 6 160 10 66 13 176 61 251 111 109 73 151 89 233
89 176 0 396 -50 725 -163 l143 -50 -5 56 c-18 170 -86 274 -306 465 -167 145
-229 213 -279 299 -39 69 -69 194 -63 263 1 7 386 10 1134 11 1122 0 1132 0
1189 21 191 71 302 236 293 439 -3 72 -9 96 -37 157 -69 145 -206 242 -357
253 -25 2 -347 3 -714 4 l-668 0 59 73 c228 278 359 604 398 997 10 96 10 390
1 500 -7 78 -28 232 -42 305 -26 134 -115 434 -138 463 -7 9 7 48 51 140 58
121 104 255 116 338 19 130 22 175 21 276 -2 103 -11 226 -21 271 -2 9 -6 27
-9 40 -2 12 -7 34 -11 49 -3 15 -5 29 -4 30 0 2 -15 50 -35 108 -137 394 -400
659 -778 785 -56 19 -145 41 -197 51 -102 18 -360 25 -490 13z"/>
</g>
</svg>
