<?xml version="1.0" encoding="utf-8"?>
<!-- Generator: Adobe Illustrator 15.1.0, SVG Export Plug-In . SVG Version: 6.00 Build 0)  -->
<!DOCTYPE svg PUBLIC "-//W3C//DTD SVG 1.1//EN" "http://www.w3.org/Graphics/SVG/1.1/DTD/svg11.dtd">
<svg version="1.1" id="Layer_1" xmlns="http://www.w3.org/2000/svg" xmlns:xlink="http://www.w3.org/1999/xlink" x="0px" y="0px"
	 width="203.789px" height="47.543px" viewBox="0 0 203.789 47.543" enable-background="new 0 0 203.789 47.543"
	 xml:space="preserve">
<rect x="-9.711" y="-68.368" display="none" fill="#010101" stroke="#FFFFFF" stroke-miterlimit="10" width="451.84" height="172.91"/>
<image display="none" overflow="visible" width="406" height="80" xlink:href="5C6CC8C2.png"  transform="matrix(1.0002 0 0 1.0002 13.2891 -21.458)">
</image>
<g display="none">
	<path display="inline" fill="#FFFFFF" d="M29.984,29.629c1.241,0,2.355-0.208,3.341-0.625c0.986-0.417,1.819-1.008,2.5-1.772
		c0.68-0.766,1.199-1.692,1.556-2.78s0.536-2.313,0.536-3.673V-1.259h7.652v22.037c0,2.244-0.361,4.307-1.084,6.185
		c-0.723,1.88-1.756,3.499-3.099,4.859s-2.976,2.423-4.897,3.188c-1.922,0.765-4.09,1.147-6.504,1.147
		c-2.415,0-4.587-0.383-6.517-1.147c-1.93-0.766-3.567-1.828-4.91-3.188s-2.376-2.979-3.099-4.859
		c-0.723-1.878-1.084-3.94-1.084-6.185V-1.259h7.651v22.037c0,1.36,0.179,2.585,0.536,3.673c0.357,1.088,0.875,2.015,1.556,2.78
		c0.68,0.765,1.513,1.355,2.5,1.772C27.603,29.421,28.725,29.629,29.984,29.629z"/>
	<path display="inline" fill="#FFFFFF" d="M82.372,35.75H75.46c-1.292,0-2.228-0.493-2.806-1.479l-7.04-11.35
		c-0.29-0.442-0.608-0.766-0.957-0.97c-0.349-0.204-0.863-0.306-1.543-0.306h-2.602V35.75h-7.652V-1.259h11.63
		c2.584,0,4.795,0.268,6.632,0.803c1.836,0.536,3.341,1.28,4.514,2.232c1.173,0.953,2.032,2.087,2.576,3.405
		c0.544,1.318,0.816,2.767,0.816,4.349c0,1.224-0.175,2.385-0.523,3.481c-0.349,1.097-0.854,2.096-1.518,2.997
		s-1.479,1.7-2.449,2.397s-2.075,1.259-3.316,1.684c0.493,0.271,0.952,0.599,1.377,0.981c0.425,0.383,0.808,0.838,1.148,1.364
		L82.372,35.75z M64.442,16.264c1.241,0,2.312-0.157,3.214-0.472c0.901-0.314,1.641-0.748,2.219-1.301
		c0.578-0.553,1.003-1.203,1.275-1.951c0.271-0.748,0.408-1.564,0.408-2.449c0-1.751-0.583-3.112-1.748-4.081
		s-2.938-1.454-5.318-1.454h-3.979v11.707H64.442z"/>
	<path display="inline" fill="#FFFFFF" d="M100.813,29.629c1.241,0,2.355-0.208,3.341-0.625c0.986-0.417,1.819-1.008,2.5-1.772
		c0.68-0.766,1.199-1.692,1.556-2.78s0.536-2.313,0.536-3.673V-1.259h7.652v22.037c0,2.244-0.361,4.307-1.084,6.185
		c-0.723,1.88-1.756,3.499-3.099,4.859s-2.976,2.423-4.897,3.188c-1.922,0.765-4.09,1.147-6.504,1.147
		c-2.415,0-4.587-0.383-6.517-1.147c-1.93-0.766-3.567-1.828-4.91-3.188s-2.376-2.979-3.099-4.859
		c-0.723-1.878-1.084-3.94-1.084-6.185V-1.259h7.651v22.037c0,1.36,0.179,2.585,0.536,3.673c0.357,1.088,0.875,2.015,1.556,2.78
		c0.68,0.765,1.513,1.355,2.5,1.772C98.433,29.421,99.555,29.629,100.813,29.629z"/>
	<path display="inline" fill="#FFFFFF" d="M149.886,4.914h-10.814V35.75h-7.677V4.914H120.58v-6.172h29.306V4.914z"/>
	<path display="inline" fill="#FFFFFF" d="M183.272,35.75h-5.943c-0.663,0-1.203-0.157-1.62-0.472s-0.727-0.719-0.931-1.212
		l-2.5-7.064h-14.743l-2.5,7.064c-0.17,0.426-0.468,0.813-0.893,1.161c-0.425,0.349-0.961,0.522-1.607,0.522h-5.994l14.461-37.009
		h7.831L183.272,35.75z M170.417,21.696l-4.004-11.324c-0.238-0.595-0.489-1.292-0.752-2.092c-0.264-0.799-0.514-1.666-0.752-2.602
		c-0.238,0.953-0.489,1.833-0.752,2.64s-0.514,1.509-0.752,2.104l-3.979,11.273H170.417z"/>
	<path display="inline" fill="#FFFFFF" d="M200.897,29.629c1.241,0,2.355-0.208,3.342-0.625c0.985-0.417,1.819-1.008,2.499-1.772
		c0.681-0.766,1.199-1.692,1.557-2.78c0.356-1.088,0.535-2.313,0.535-3.673V-1.259h7.651v22.037c0,2.244-0.361,4.307-1.084,6.185
		c-0.723,1.88-1.756,3.499-3.099,4.859c-1.344,1.36-2.976,2.423-4.897,3.188c-1.921,0.765-4.089,1.147-6.504,1.147
		c-2.414,0-4.587-0.383-6.517-1.147c-1.93-0.766-3.566-1.828-4.909-3.188c-1.344-1.36-2.377-2.979-3.1-4.859
		c-0.723-1.878-1.084-3.94-1.084-6.185V-1.259h7.652v22.037c0,1.36,0.178,2.585,0.535,3.673s0.876,2.015,1.556,2.78
		c0.681,0.765,1.514,1.355,2.5,1.772C198.516,29.421,199.639,29.629,200.897,29.629z"/>
	<path display="inline" fill="#FFFFFF" d="M303.555,35.75h-2.016c-0.238,0-0.434-0.063-0.586-0.191
		c-0.152-0.127-0.271-0.293-0.357-0.497l-4.234-10.483h-17.727l-4.232,10.483c-0.068,0.188-0.188,0.349-0.357,0.484
		c-0.17,0.137-0.375,0.204-0.613,0.204h-1.988l14.768-36.09h2.576L303.555,35.75z M295.572,22.64l-7.346-18.236
		c-0.256-0.595-0.502-1.309-0.74-2.142c-0.102,0.408-0.213,0.795-0.332,1.16c-0.119,0.366-0.246,0.702-0.383,1.008l-7.346,18.21
		H295.572z"/>
	<path display="inline" fill="#FFFFFF" d="M339.951,17.692c0,2.789-0.418,5.297-1.25,7.524c-0.834,2.229-2.006,4.124-3.52,5.688
		s-3.328,2.763-5.445,3.596c-2.117,0.834-4.451,1.25-7.002,1.25h-13.186V-0.34h13.186c2.551,0,4.885,0.417,7.002,1.25
		c2.117,0.833,3.932,2.032,5.445,3.596c1.514,1.565,2.686,3.46,3.52,5.688C339.533,12.421,339.951,14.92,339.951,17.692z
		 M337.248,17.692c0-2.516-0.35-4.761-1.047-6.733c-0.697-1.972-1.684-3.639-2.959-4.999s-2.805-2.397-4.59-3.112
		s-3.758-1.071-5.918-1.071h-10.559v31.856h10.559c2.16,0,4.133-0.356,5.918-1.071c1.785-0.714,3.314-1.751,4.59-3.111
		s2.262-3.026,2.959-4.999S337.248,20.226,337.248,17.692z"/>
	<path display="inline" fill="#FFFFFF" d="M374.945,35.75h-2.016c-0.238,0-0.434-0.063-0.586-0.191
		c-0.152-0.127-0.271-0.293-0.357-0.497l-4.234-10.483h-17.727l-4.232,10.483c-0.068,0.188-0.188,0.349-0.357,0.484
		c-0.17,0.137-0.375,0.204-0.613,0.204h-1.988l14.768-36.09h2.576L374.945,35.75z M366.963,22.64l-7.346-18.236
		c-0.256-0.595-0.502-1.309-0.74-2.142c-0.102,0.408-0.213,0.795-0.332,1.16c-0.119,0.366-0.246,0.702-0.383,1.008l-7.346,18.21
		H366.963z"/>
	<path display="inline" fill="#FFFFFF" d="M390.273-0.34c4.234,0,7.426,0.927,9.578,2.78c2.15,1.854,3.227,4.498,3.227,7.933
		c0,1.581-0.299,3.035-0.893,4.361c-0.596,1.326-1.445,2.47-2.551,3.431c-1.105,0.961-2.449,1.709-4.031,2.244
		c-1.58,0.536-3.357,0.804-5.33,0.804h-6.707V35.75h-2.627V-0.34H390.273z M390.273,19.12c1.582,0,3.002-0.221,4.26-0.663
		c1.258-0.442,2.324-1.054,3.201-1.836c0.875-0.782,1.547-1.705,2.016-2.767c0.467-1.063,0.701-2.223,0.701-3.481
		c0-2.771-0.852-4.906-2.551-6.402c-1.701-1.496-4.244-2.244-7.627-2.244h-6.707V19.12H390.273z"/>
	<path display="inline" fill="#FFFFFF" d="M433.887,1.878h-12.676V35.75h-2.627V1.878H405.83V-0.34h28.057V1.878z"/>
</g>
<g>
	<g>
		<path fill="#27ACE3" d="M127.359,36.65c-4.012,0.89-8.119,1.518-12.201,1.145c-4.083-0.37-8.169-1.803-11.296-4.651
			c-4.051-3.688-6.166-9.71-5.338-15.349c0.83-5.641,4.595-10.687,9.553-12.717c4.958-2.031,10.917-0.939,14.937,2.789
			c-3.412-2.181-7.777-2.653-11.439-1.009c-3.662,1.643-6.468,5.447-6.9,9.692c-0.783,7.696,5.338,12.071,11.788,12.1
			c6.512,0.028,13.254-1.175,19.631-2.502c5.248-1.095,10.24-2.852,15.437-4.167c12.076-3.058,25.896-4.602,38.003-1.093
			c5.093,1.478,10.011,4.077,13.843,7.927c-6.094-4.65-13.119-5.35-20.035-5.711C164.175,22.106,146.154,32.479,127.359,36.65
			L127.359,36.65z"/>
		<path fill="#217CC0" d="M105.043,41.706c3.167,1.198,5.963,1.246,9.315,1.066c5.566-0.297,11.108-1.108,16.544-2.422
			c8.583-2.078,16.858-5.394,25.267-8.179c8.408-2.784,17.081-5.056,25.877-4.952c7.643,0.091,15.444,2.127,21.743,6.694
			c-9.237-3.646-19.776-3.085-29.483-0.688c-11.379,2.812-22.161,7.923-33.448,11.131c-11.288,3.205-23.977,5.111-34.705,0.155
			c-3.767-1.742-7.136-5.26-8.525-9.359C98.72,38.292,102.08,40.585,105.043,41.706L105.043,41.706z"/>
	</g>
	<g>
		<path d="M138.567,20.524h-0.949c-0.112,0-0.205-0.03-0.277-0.09c-0.072-0.061-0.128-0.139-0.168-0.234l-1.996-4.94h-8.354
			l-1.995,4.94c-0.032,0.088-0.088,0.164-0.168,0.229c-0.08,0.063-0.176,0.096-0.289,0.096h-0.938l6.96-17.009h1.214L138.567,20.524
			z M134.805,14.346l-3.462-8.595c-0.12-0.28-0.236-0.617-0.349-1.01c-0.048,0.192-0.1,0.375-0.156,0.547
			c-0.056,0.172-0.116,0.331-0.18,0.475l-3.462,8.583H134.805z"/>
		<path d="M155.72,12.014c0,1.314-0.196,2.496-0.589,3.546s-0.946,1.943-1.659,2.681c-0.713,0.737-1.569,1.302-2.566,1.695
			s-2.098,0.589-3.3,0.589h-6.214V3.516h6.214c1.202,0,2.302,0.197,3.3,0.589s1.853,0.958,2.566,1.695
			c0.713,0.737,1.266,1.631,1.659,2.68C155.523,9.53,155.72,10.708,155.72,12.014z M154.446,12.014c0-1.186-0.165-2.244-0.493-3.173
			s-0.793-1.715-1.394-2.356s-1.322-1.13-2.164-1.467c-0.842-0.336-1.771-0.504-2.789-0.504h-4.976v15.013h4.976
			c1.018,0,1.947-0.168,2.789-0.505c0.841-0.336,1.563-0.825,2.164-1.466c0.601-0.641,1.065-1.426,1.394-2.356
			C154.281,14.27,154.446,13.208,154.446,12.014z"/>
		<path d="M172.211,20.524h-0.949c-0.112,0-0.205-0.03-0.277-0.09c-0.072-0.061-0.128-0.139-0.168-0.234l-1.996-4.94h-8.354
			l-1.995,4.94c-0.032,0.088-0.088,0.164-0.168,0.229c-0.08,0.063-0.176,0.096-0.289,0.096h-0.938l6.96-17.009h1.214L172.211,20.524
			z M168.449,14.346l-3.462-8.595c-0.12-0.28-0.236-0.617-0.349-1.01c-0.048,0.192-0.1,0.375-0.156,0.547
			c-0.056,0.172-0.116,0.331-0.18,0.475l-3.462,8.583H168.449z"/>
		<path d="M179.436,3.516c1.996,0,3.5,0.437,4.514,1.311s1.521,2.12,1.521,3.738c0,0.745-0.14,1.43-0.421,2.055
			c-0.28,0.625-0.681,1.164-1.202,1.617c-0.521,0.453-1.154,0.806-1.899,1.058s-1.583,0.378-2.512,0.378h-3.161v6.852h-1.238V3.516
			H179.436z M179.436,12.687c0.745,0,1.414-0.104,2.007-0.313c0.593-0.208,1.096-0.497,1.509-0.865
			c0.413-0.369,0.729-0.803,0.949-1.304c0.221-0.501,0.331-1.048,0.331-1.641c0-1.306-0.4-2.312-1.202-3.017
			c-0.802-0.705-2-1.058-3.594-1.058h-3.161v8.198H179.436z"/>
		<path d="M199.99,4.562h-5.974v15.963h-1.238V4.562h-6.01V3.516h13.222V4.562z"/>
	</g>
	<g>
		<path d="M8.967,24.771c0.584,0,1.11-0.098,1.575-0.295c0.464-0.196,0.857-0.475,1.178-0.835c0.32-0.36,0.565-0.798,0.733-1.311
			c0.168-0.513,0.252-1.09,0.252-1.73V10.214h3.606V20.6c0,1.058-0.17,2.029-0.511,2.915c-0.341,0.885-0.828,1.648-1.46,2.289
			c-0.633,0.642-1.403,1.143-2.308,1.503c-0.906,0.36-1.927,0.541-3.065,0.541c-1.138,0-2.162-0.181-3.071-0.541
			c-0.91-0.36-1.681-0.861-2.314-1.503c-0.633-0.641-1.12-1.404-1.46-2.289c-0.341-0.886-0.511-1.857-0.511-2.915V10.214h3.606V20.6
			c0,0.641,0.084,1.218,0.252,1.73s0.413,0.95,0.733,1.311c0.32,0.36,0.713,0.639,1.178,0.835
			C7.845,24.673,8.374,24.771,8.967,24.771z"/>
		<path d="M33.657,27.655h-3.257c-0.609,0-1.05-0.232-1.322-0.697l-3.317-5.349c-0.137-0.209-0.287-0.361-0.451-0.457
			c-0.164-0.096-0.407-0.145-0.727-0.145h-1.226v6.647H19.75V10.214h5.481c1.218,0,2.26,0.126,3.125,0.379
			c0.865,0.252,1.575,0.603,2.127,1.052c0.553,0.449,0.958,0.983,1.214,1.604c0.256,0.621,0.384,1.304,0.384,2.049
			c0,0.577-0.082,1.124-0.246,1.641c-0.165,0.517-0.403,0.987-0.715,1.412s-0.697,0.802-1.154,1.13
			c-0.457,0.329-0.978,0.593-1.563,0.793c0.232,0.129,0.449,0.283,0.649,0.463c0.2,0.181,0.38,0.396,0.541,0.644L33.657,27.655z
			 M25.207,18.472c0.585,0,1.09-0.074,1.515-0.222s0.773-0.353,1.046-0.613c0.272-0.26,0.473-0.567,0.601-0.919
			c0.128-0.353,0.192-0.737,0.192-1.154c0-0.825-0.274-1.466-0.823-1.923c-0.549-0.457-1.384-0.685-2.506-0.685h-1.875v5.517H25.207
			z"/>
		<path d="M42.348,24.771c0.584,0,1.11-0.098,1.575-0.295c0.464-0.196,0.857-0.475,1.178-0.835c0.32-0.36,0.565-0.798,0.733-1.311
			c0.168-0.513,0.252-1.09,0.252-1.73V10.214h3.606V20.6c0,1.058-0.17,2.029-0.511,2.915c-0.341,0.885-0.828,1.648-1.46,2.289
			c-0.633,0.642-1.403,1.143-2.308,1.503c-0.906,0.36-1.927,0.541-3.065,0.541c-1.138,0-2.162-0.181-3.071-0.541
			c-0.91-0.36-1.681-0.861-2.314-1.503c-0.633-0.641-1.12-1.404-1.46-2.289c-0.341-0.886-0.511-1.857-0.511-2.915V10.214h3.606V20.6
			c0,0.641,0.084,1.218,0.252,1.73s0.413,0.95,0.733,1.311c0.32,0.36,0.713,0.639,1.178,0.835
			C41.226,24.673,41.754,24.771,42.348,24.771z"/>
		<path d="M65.474,13.123h-5.097v14.533h-3.618V13.123h-5.096v-2.909h13.811V13.123z"/>
		<path d="M81.208,27.655h-2.801c-0.313,0-0.567-0.074-0.763-0.223c-0.196-0.147-0.343-0.338-0.439-0.57l-1.178-3.33H69.08
			l-1.178,3.33c-0.081,0.2-0.221,0.383-0.421,0.547c-0.201,0.164-0.453,0.246-0.757,0.246h-2.825l6.815-17.441h3.69L81.208,27.655z
			 M75.15,21.032l-1.887-5.337c-0.112-0.281-0.23-0.609-0.354-0.986c-0.125-0.376-0.243-0.785-0.355-1.226
			c-0.112,0.449-0.23,0.864-0.354,1.244c-0.124,0.381-0.242,0.711-0.354,0.992l-1.875,5.313H75.15z"/>
		<path d="M89.515,24.771c0.584,0,1.11-0.098,1.575-0.295c0.464-0.196,0.857-0.475,1.178-0.835c0.32-0.36,0.565-0.798,0.733-1.311
			c0.168-0.513,0.252-1.09,0.252-1.73V10.214h3.606V20.6c0,1.058-0.17,2.029-0.511,2.915c-0.341,0.885-0.828,1.648-1.46,2.289
			c-0.633,0.642-1.403,1.143-2.308,1.503c-0.906,0.36-1.927,0.541-3.065,0.541c-1.138,0-2.162-0.181-3.071-0.541
			c-0.91-0.36-1.681-0.861-2.314-1.503c-0.633-0.641-1.12-1.404-1.46-2.289c-0.341-0.886-0.511-1.857-0.511-2.915V10.214h3.606V20.6
			c0,0.641,0.084,1.218,0.252,1.73s0.413,0.95,0.733,1.311c0.32,0.36,0.713,0.639,1.178,0.835
			C88.393,24.673,88.921,24.771,89.515,24.771z"/>
	</g>
</g>
</svg>
